<svg width="24" height="24" viewBox="0 0 24 24" xmlns="http://www.w3.org/2000/svg">
    <g fill="none" fill-rule="evenodd">
        <path fill="none" d="M0 0h24v24H0z"/>
        <g stroke="#FBAC00" stroke-width=".889">
            <path d="m19.797 13.553-6.245 6.244c-.283.283-.757.268-1.059-.033l-8.256-8.257A.798.798 0 0 1 4 10.934l.102-6.142a.693.693 0 0 1 .69-.69L10.934 4a.798.798 0 0 1 .573.236l8.256 8.257c.302.302.317.776.034 1.06z"/>
            <path d="M7.51 6.089A.885.885 0 1 1 6.257 7.34.885.885 0 0 1 7.51 6.089z"/>
            <path stroke-linecap="round" stroke-linejoin="round" d="m10.21 7.456 6.088 6.088M7.456 10.21l6.088 6.088"/>
        </g>
    </g>
</svg>
